<?xml version="1.0" encoding="utf-8"?>
<!-- Generator: Adobe Illustrator 26.5.0, SVG Export Plug-In . SVG Version: 6.00 Build 0)  -->
<svg version="1.1" xmlns="http://www.w3.org/2000/svg" xmlns:xlink="http://www.w3.org/1999/xlink" x="0px" y="0px"
	 viewBox="0 0 892 556.8" style="enable-background:new 0 0 892 556.8;" xml:space="preserve">
<style type="text/css">
	.st0{fill:#231F20;}
	.st1{fill:#FFFFFF;}
</style>
<g id="Layer_1">
	<g id="XMLID_1120_">
	</g>
</g>
<g id="Layer_2">
	<g>
		<g>
			<path d="M391.3,58.4c0-32.1,25.4-58.4,56.6-58.4c12.9,0,24.9,5.7,34.3,15.7c2.4-1.8,5.3-5.9,6.3-10.5h3.7v40.6h-3.7
				c-5.2-24-19.4-38.5-39.8-38.5c-29.5,0-40.2,28.4-40.2,51.2c0,22.9,10.7,51.1,40.2,51.1c20.5,0,34.7-14.7,39.8-38.3h3.7v40.6h-3.7
				c-0.9-4.4-3.9-8.8-6.3-10.5c-9.4,9.8-21.4,15.7-34.3,15.7C416.8,116.9,391.3,90.5,391.3,58.4z"/>
			<path d="M509.3,109.9c12.4,0,14.6-3.1,14.6-21.6V30c0-18.4-2.2-21.6-14.6-21.6V4.6L537,0v88.3c0,18.4,2.4,21.6,14.6,21.6v3.9
				h-42.2V109.9z"/>
			<path d="M564,100.7c0-15.7,18.2-22.5,39.3-26.2c0-13.8-1.8-19.4-12.4-19.4c-4.2,0-10.5,2.9-10.5,8.8c0,3.7-2.8,6.5-6.3,6.5
				c-3.7,0-6.5-2.8-6.5-6.5c0-8.8,11.6-14.7,23.4-14.7c17.9,0,25.3,7.6,25.3,25.1v27.8c0,4.6,1.5,7.2,4.2,7.2c1.8,0,3.9-1.5,5.2-2.8
				l2.6,3.5c-3.5,3.7-8.1,5.7-12.2,5.7c-7.2,0-11.6-4.1-12.5-10.7c-9,8.1-15.7,11.1-23,11.1C571.6,116.1,564,110.4,564,100.7z
				 M603.3,99V80.2c-17.5,4.1-25.4,10.1-25.4,18.2c0,5.9,4.1,9.4,8.7,9.4C590.4,107.8,594.8,106.5,603.3,99z"/>
			<path d="M640.2,90h3.9c0,8.3,7,20.6,20.1,20.6c6.1,0,10.5-4.2,10.5-9.4c0-4.6-4.1-7.9-10.3-11.2L654,84.4
				c-8.8-4.8-12.2-12.5-12.2-18.4c0-10,9.2-16.8,18.6-16.8c9.6,0,13.3,4.2,15.7,4.2c0.7,0,1.1-1.3,1.1-4.2h3.9v21.4h-3.9
				c0-7.7-5.5-15.5-14.9-15.5c-6.3,0-9.4,3.3-9.4,7.9c0,4.4,2.9,6.8,11.2,11.2l8.8,4.8c8.1,4.6,12.7,11.1,12.7,17.7
				c0,12.2-10,20.1-21.9,20.1c-8.3,0-14.7-5.9-17.3-5.9c-1.7,0-2.4,1.5-2.4,5.9h-3.9V90z"/>
			<path d="M702.9,90h3.9c0,8.3,7,20.6,20.1,20.6c6.1,0,10.5-4.2,10.5-9.4c0-4.6-4.1-7.9-10.3-11.2l-10.3-5.5
				c-8.8-4.8-12.2-12.5-12.2-18.4c0-10,9.2-16.8,18.6-16.8c9.6,0,13.3,4.2,15.7,4.2c0.7,0,1.1-1.3,1.1-4.2h3.9v21.4h-3.9
				c0-7.7-5.5-15.5-14.9-15.5c-6.3,0-9.4,3.3-9.4,7.9c0,4.4,2.9,6.8,11.2,11.2l8.8,4.8c8.1,4.6,12.7,11.1,12.7,17.7
				c0,12.2-10,20.1-21.9,20.1c-8.3,0-14.7-5.9-17.3-5.9c-1.7,0-2.4,1.5-2.4,5.9h-3.9V90z"/>
			<path d="M763.7,109.9c12.2,0,14.6-3.1,14.6-21.6v-9.2c0-18.4-2.4-21.4-14.6-21.4v-3.9l27.7-4.6v39.1c0,18.4,2.2,21.6,14.6,21.6
				v3.9h-42.2V109.9z M776.6,22.9c0-4.4,3.7-8.1,8.1-8.1c4.4,0,8.1,3.7,8.1,8.1c0,4.6-3.7,8.3-8.1,8.3
				C780.3,31.2,776.6,27.5,776.6,22.9z"/>
			<path d="M818.3,84.6c0-21.8,17.9-35.4,32.6-35.4c15.3,0,21.9,6.5,21.9,13.3c0,2.9-1.8,7.9-8.1,7.9c-4.1,0-7.2-3.3-7.2-7.4
				c0-6.1-3.3-7.9-6.6-7.9c-9.8,0-17.7,12.5-17.7,29.5c0,14.7,7.2,24.5,22.3,24.5c6.1,0,13.6-2.8,19.7-8.5l3.1,4.1
				c-7,7.6-17,12.2-27.5,12.2C830.4,116.9,818.3,103,818.3,84.6z"/>
		</g>
		<g>
			<path d="M441.4,142.1v6.1h-21.8v15.1h19.1v6.1h-19.1v20.1h-6.4v-47.4H441.4z"/>
			<path d="M458.2,142.1v47.4h-6.4v-47.4H458.2z"/>
			<path d="M478.2,142.1v41.3h24.1v6.2h-30.5v-47.4H478.2z"/>
			<path d="M559.9,140.6v49h-6.3v-30.7l-17.5,24.7H536l-17.1-23.9v29.9h-6.2v-49h0.1l23.4,33.1L559.9,140.6L559.9,140.6z"/>
			<path d="M622.4,142.1v6.1h-21.8v15.1h19.1v6.1h-19.1v20.1h-6.4v-47.4H622.4z"/>
			<path d="M663.7,142.1v6.1h-24.5v14.4h21.9v6.1h-21.9v14.6h25.4v6.2h-31.8v-47.4H663.7z"/>
			<path d="M694.9,148.3c-1.9-0.6-3.7-0.9-5.4-0.9c-2.6,0-4.6,0.6-6.1,1.7c-1.5,1.2-2.3,2.7-2.3,4.8c0,2,0.9,3.6,2.7,4.8
				c1.8,1.2,4.3,2.5,7.6,3.7c2.4,0.9,4.5,1.8,6.2,2.9c1.7,1,3.1,2.5,4.2,4.3c1.1,1.8,1.7,4.1,1.7,6.9c0,2.5-0.6,4.8-1.9,6.9
				c-1.3,2.1-3.1,3.7-5.4,4.9c-2.3,1.2-5.1,1.8-8.2,1.8c-2.9,0-5.8-0.5-8.5-1.4c-2.7-0.9-5.1-2.1-7.2-3.6l2.8-5.1
				c1.6,1.2,3.6,2.3,5.8,3.1c2.3,0.9,4.4,1.3,6.4,1.3c2.5,0,4.8-0.7,6.7-2s2.9-3.3,2.9-5.8c0-2.2-0.8-3.9-2.4-5.2
				c-1.6-1.3-3.8-2.5-6.7-3.6c-2.7-1-4.9-2-6.7-3c-1.8-1-3.3-2.3-4.6-4c-1.3-1.7-1.9-3.8-1.9-6.3c0-3.7,1.3-6.7,3.9-9
				c2.6-2.3,6-3.5,10.1-3.6c5.1,0,9.9,1.3,14.2,3.8l-2.4,4.9C698.6,149.6,696.8,148.9,694.9,148.3z"/>
			<path d="M741.6,142.1v6.1h-12.7v41.3h-6.4v-41.3h-12.4v-6.1H741.6z"/>
			<path d="M758.2,142.1v47.4h-6.4v-47.4H758.2z"/>
			<path d="M809.6,142.1l-20.9,49.7l-20.9-49.7h7.5l13.6,34.2l13.2-34.2H809.6z"/>
			<path d="M837.9,177h-18.2l-5.1,12.5h-6.3l20.7-49.4h0.4l20.7,49.4h-7.3L837.9,177z M835.7,171.5l-6.8-17.3l-7,17.3H835.7z"/>
			<path d="M865.4,142.1v41.3h24.1v6.2H859v-47.4H865.4z"/>
		</g>
		<g id="XMLID_5533_">
			<path id="XMLID_5619_" class="st0" d="M880.9,305.5c3.7-5.5,7.4-11,11.2-16.5C606.8-5.1,321.6,583,36.3,289
				c3.7,5.5,7.4,11,11.2,16.5c10,10.3,19.9,19.4,29.9,27.6c5.8,8.8,11.6,17.6,17.3,26.4c-9.5-7.8-19-16.5-28.5-26.3
				c27.6,40.9,55.3,81.9,82.9,122.8c7.5,7.8,15.1,14.7,22.6,20.8c5.8,8.8,11.6,17.6,17.3,26.4c-7.1-5.8-14.2-12.3-21.2-19.6
				c3.7,5.5,7.4,11,11.2,16.5c190.2,196,380.3-196,570.5,0c3.7-5.5,7.4-11,11.2-16.5c-8-8.3-16-15.5-24.1-21.9
				c5.7-9.7,11.4-19.4,17.2-29.1c8.5,6.7,17.1,14.5,25.6,23.3c27.6-40.9,55.3-81.9,82.9-122.8c-10.8-11.1-21.6-20.9-32.3-29.4
				c5.7-9.7,11.4-19.4,17.2-29.1C858.3,283.6,869.6,293.9,880.9,305.5z M224.7,526.6c-8-4-16-8.7-24.1-14.4
				c-5.5-8.6-11.1-17.3-16.6-25.9c8.5,6,17.1,11.1,25.6,15.3C214.7,509.9,219.7,518.2,224.7,526.6z M142.7,390.7
				c-10.8-5.3-21.6-11.7-32.3-19.3c-5.5-8.6-11.1-17.3-16.6-25.9c11.3,8,22.6,14.7,33.8,20.3C132.6,374.1,137.6,382.4,142.7,390.7z
				 M260.5,539.1c-8-1.7-16-4.1-24.1-7.3c-4.8-8.2-9.6-16.4-14.4-24.6c8.5,3.4,17.1,6,25.6,7.8C251.9,523,256.2,531,260.5,539.1z
				 M190.6,407.6c-10.8-2.3-21.6-5.6-32.3-9.8c-4.8-8.2-9.6-16.4-14.4-24.6c11.3,4.5,22.6,7.9,33.8,10.3
				C182.1,391.4,186.3,399.5,190.6,407.6z M296.2,542.5c-8,0.2-16-0.3-24.1-1.3c-4-8-8.1-16-12.1-24.1c8.5,1.1,17.1,1.6,25.6,1.4
				C289.1,526.5,292.7,534.5,296.2,542.5z M238.6,412.1c-10.8,0.2-21.6-0.4-32.3-1.8c-4-8-8.1-16-12.1-24.1
				c11.3,1.5,22.6,2.1,33.8,1.9C231.5,396.1,235.1,404.1,238.6,412.1z M331.9,538.3c-8,1.7-16,2.9-24.1,3.6c-3.3-8-6.6-16-9.9-24
				c8.5-0.7,17.1-2,25.6-3.8C326.4,522.1,329.1,530.2,331.9,538.3z M286.6,406.5c-10.8,2.2-21.6,3.9-32.3,4.8c-3.3-8-6.6-16-9.9-24
				c11.3-1,22.6-2.7,33.8-5C281,390.3,283.8,398.4,286.6,406.5z M367.6,528.2c-8,2.8-16,5.3-24.1,7.4c-2.5-8.1-5.1-16.3-7.6-24.4
				c8.5-2.2,17.1-4.9,25.6-7.9C363.6,511.6,365.6,519.9,367.6,528.2z M334.5,392.9c-10.8,3.8-21.6,7.1-32.3,9.9
				c-2.5-8.1-5.1-16.3-7.6-24.4c11.3-2.9,22.6-6.4,33.8-10.4C330.5,376.3,332.5,384.6,334.5,392.9z M403.4,513.7
				c-8,3.6-16,7-24.1,10.1c-1.8-8.4-3.6-16.8-5.4-25.1c8.5-3.3,17.1-6.9,25.6-10.8C400.8,496.5,402.1,505.1,403.4,513.7z
				 M382.5,373.5c-10.8,4.9-21.6,9.4-32.3,13.6c-1.8-8.4-3.6-16.8-5.4-25.1c11.3-4.4,22.6-9.2,33.8-14.3
				C379.9,356.3,381.2,364.9,382.5,373.5z M439.1,496.5c-8,4-16,8-24.1,11.8c-1-8.7-2.1-17.4-3.1-26.1c8.5-4,17.1-8.2,25.6-12.5
				C438,478.6,438.5,487.6,439.1,496.5z M430.5,350.4c-10.8,5.4-21.6,10.8-32.3,15.9c-1-8.7-2.1-17.4-3.1-26.1
				c11.3-5.3,22.6-10.9,33.8-16.6C429.4,332.5,429.9,341.5,430.5,350.4z M474.8,478.2c-8,4.1-16,8.3-24.1,12.4
				c-0.3-9.1-0.6-18.2-0.8-27.2c8.5-4.4,17.1-8.8,25.6-13.2C475.2,459.5,475,468.9,474.8,478.2z M478.4,325.8
				c-10.8,5.5-21.6,11.1-32.3,16.6c-0.3-9.1-0.6-18.2-0.8-27.2c11.3-5.8,22.6-11.6,33.8-17.4C478.9,307.1,478.7,316.5,478.4,325.8z
				 M510.5,460.4c-8,3.8-16,7.8-24.1,11.9c0.5-9.5,0.9-18.9,1.4-28.4c8.5-4.3,17.1-8.6,25.6-12.6
				C512.5,440.9,511.5,450.7,510.5,460.4z M526.4,301.9c-10.8,5.1-21.6,10.5-32.3,16c0.5-9.5,0.9-18.9,1.4-28.4
				c11.3-5.7,22.6-11.3,33.8-16.7C528.4,282.4,527.4,292.1,526.4,301.9z M546.2,444.6c-8,3.2-16,6.6-24.1,10.3
				c1.2-9.8,2.4-19.7,3.7-29.5c8.5-3.9,17.1-7.6,25.6-11C549.7,424.5,548,434.6,546.2,444.6z M574.4,280.7
				c-10.8,4.3-21.6,8.9-32.3,13.8c1.2-9.8,2.4-19.7,3.7-29.5c11.3-5.1,22.6-10,33.8-14.5C577.8,260.6,576.1,270.7,574.4,280.7z
				 M582,432.6c-8,2.2-16,4.8-24.1,7.6c2-10.1,3.9-20.3,5.9-30.4c8.5-3.1,17.1-5.8,25.6-8.1C586.9,412,584.4,422.3,582,432.6z
				 M622.3,264.5c-10.8,2.9-21.6,6.4-32.3,10.3c2-10.1,3.9-20.3,5.9-30.4c11.3-4.1,22.6-7.7,33.8-10.8
				C627.3,243.9,624.8,254.2,622.3,264.5z M617.7,425.8c-8,0.8-16,2.1-24.1,3.9c2.7-10.4,5.4-20.7,8.2-31.1
				c8.5-1.9,17.1-3.3,25.6-4.2C624.1,404.9,620.9,415.3,617.7,425.8z M670.3,255.4c-10.8,1.1-21.6,2.9-32.3,5.2
				c2.7-10.4,5.4-20.7,8.2-31.1c11.3-2.5,22.6-4.4,33.8-5.5C676.8,234.5,673.5,245,670.3,255.4z M653.4,425.9
				c-8-0.9-16-1.2-24.1-0.9c3.5-10.5,6.9-20.9,10.4-31.4c8.5-0.3,17.1,0,25.6,1C661.4,405,657.4,415.5,653.4,425.9z M718.3,255.6
				c-10.8-1.2-21.6-1.6-32.3-1.2c3.5-10.5,6.9-20.9,10.4-31.4c11.3-0.4,22.6,0,33.8,1.3C726.2,234.7,722.3,245.1,718.3,255.6z
				 M689.1,434.5c-8-3-16-5.3-24.1-6.8c4.2-10.4,8.4-20.8,12.7-31.2c8.5,1.7,17.1,4.1,25.6,7.3C698.6,414,693.8,424.3,689.1,434.5z
				 M766.2,267.1c-10.8-4-21.6-7.1-32.3-9.2c4.2-10.4,8.4-20.8,12.7-31.2c11.3,2.2,22.6,5.4,33.8,9.6
				C775.7,246.6,771,256.9,766.2,267.1z M724.8,453.3c-8-5.5-16-10-24.1-13.8c5-10.2,9.9-20.3,14.9-30.5c8.5,4,17.1,8.9,25.6,14.7
				C735.8,433.5,730.3,443.4,724.8,453.3z M814.2,292.3c-10.8-7.3-21.6-13.5-32.3-18.5c5-10.2,9.9-20.3,14.9-30.5
				c11.3,5.3,22.6,11.7,33.8,19.4C825.2,272.6,819.7,282.4,814.2,292.3z"/>
			<g id="XMLID_5617_">
				<path id="XMLID_5618_" class="st0" d="M264.8,54.7c3.3,2.8,6.6,5.8,9.7,8.9c15.3,15.3,27.3,33.1,35.6,52.9
					c0.7,1.7,1.4,3.5,2.1,5.3c5.1,0,10.3,2,14.2,5.9c7.9,7.9,7.9,20.7,0,28.7c-1.4,1.4-2.9,2.5-4.6,3.4c0.9,7.1,1.4,14.2,1.4,21.4
					c0,6.3-0.4,12.6-1.1,18.8c3.4-6.4,10.1-10.8,17.9-10.8c11.2,0,20.3,9.1,20.3,20.3c0,11.2-9.1,20.3-20.3,20.3
					c-9.9,0-18.2-7.1-19.9-16.5c-2.2,11.2-5.5,22.1-10,32.8c-1.8,4.2-3.7,8.3-5.8,12.3c7.3-3.1,16.1-1.6,22.1,4.4
					c7.9,7.9,7.9,20.7,0,28.7c-7.9,7.9-20.7,7.9-28.7,0c-3.6-3.6-5.6-8.2-5.9-12.9c-5.2,7.2-11,14.1-17.4,20.4
					c-3.2,3.2-6.4,6.2-9.8,9.1c-1.4,9.8-9.9,17.3-20,17.3c-1.3,0-2.6-0.1-3.8-0.4c-6.2,3.6-12.6,6.8-19.2,9.6
					c-16.3,6.9-33.4,11.1-51,12.5c22,11.9,47.2,18.6,74,18.6c86.2,0,156.1-69.9,156.1-156.1C400.8,130.1,341.5,64.6,264.8,54.7z"/>
			</g>
			<path id="XMLID_5534_" class="st0" d="M156.9,25.1C70.7,25.1,0.9,95,0.9,181.2c0,86.2,69.9,156.1,156.1,156.1
				S313,267.4,313,181.2C313,95,243.2,25.1,156.9,25.1z M210.1,99.4c7.9-7.9,20.7-7.9,28.7,0c7.9,7.9,7.9,20.7,0,28.7
				c-7.9,7.9-20.7,7.9-28.7,0C202.2,120.2,202.2,107.3,210.1,99.4z M41.3,181.2c0-11.2,9.1-20.3,20.3-20.3
				c11.2,0,20.3,9.1,20.3,20.3c0,11.2-9.1,20.3-20.3,20.3C50.4,201.5,41.3,192.4,41.3,181.2z M103.8,263c-7.9,7.9-20.7,7.9-28.7,0
				c-7.9-7.9-7.9-20.7,0-28.7c7.9-7.9,20.7-7.9,28.7,0C111.7,242.3,111.7,255.1,103.8,263z M103.8,128.1c-7.9,7.9-20.7,7.9-28.7,0
				c-7.9-7.9-7.9-20.7,0-28.7c7.9-7.9,20.7-7.9,28.7,0C111.7,107.3,111.7,120.2,103.8,128.1z M156.9,296.9
				c-11.2,0-20.3-9.1-20.3-20.3c0-11.2,9.1-20.3,20.3-20.3c11.2,0,20.3,9.1,20.3,20.3C177.2,287.8,168.1,296.9,156.9,296.9z
				 M156.9,201.5c-11.2,0-20.3-9.1-20.3-20.3c0-11.2,9.1-20.3,20.3-20.3c11.2,0,20.3,9.1,20.3,20.3
				C177.2,192.4,168.1,201.5,156.9,201.5z M156.9,106.1c-11.2,0-20.3-9.1-20.3-20.3c0-11.2,9.1-20.3,20.3-20.3
				c11.2,0,20.3,9.1,20.3,20.3C177.2,97,168.1,106.1,156.9,106.1z M238.7,263c-7.9,7.9-20.7,7.9-28.7,0c-7.9-7.9-7.9-20.7,0-28.7
				c7.9-7.9,20.7-7.9,28.7,0C246.7,242.3,246.7,255.1,238.7,263z M252.4,201.5c-11.2,0-20.3-9.1-20.3-20.3
				c0-11.2,9.1-20.3,20.3-20.3c11.2,0,20.3,9.1,20.3,20.3C272.6,192.4,263.5,201.5,252.4,201.5z"/>
		</g>
	</g>
	<g id="XMLID_2761_">
		<g id="XMLID_2762_">
			<g id="XMLID_2763_">
				<g id="XMLID_2784_">
					<path id="XMLID_2797_" class="st1" d="M1376.1,1852.2c1.7,0.8,4.3,1.5,6.9,1.5c4,0,6.3-1.6,6.3-4c0-2.2-1.6-3.5-5.6-4.7
						c-4.9-1.4-7.9-3.4-7.9-6.7c0-3.7,3.9-6.4,9.7-6.4c3.1,0,5.3,0.6,6.6,1.2l-1.1,2.5c-1-0.4-3-1.1-5.7-1.1c-4.1,0-5.6,1.9-5.6,3.5
						c0,2.2,1.8,3.3,6,4.5c5.1,1.5,7.6,3.5,7.6,6.9c0,3.6-3.4,6.8-10.5,6.8c-2.9,0-6-0.7-7.6-1.5L1376.1,1852.2z"/>
					<path id="XMLID_2795_" class="st1" d="M1417.4,1832.3h3.9v21h12.8v2.6h-16.7V1832.3z"/>
					<path id="XMLID_2792_" class="st1" d="M1482.8,1843.9c0,8.1-6.3,12.4-13.9,12.4c-7.9,0-13.5-4.8-13.5-12
						c0-7.5,5.9-12.4,13.9-12.4C1477.5,1832,1482.8,1836.9,1482.8,1843.9z M1459.6,1844.3c0,5,3.5,9.5,9.6,9.5
						c6.1,0,9.6-4.4,9.6-9.8c0-4.7-3.1-9.6-9.6-9.6C1462.8,1834.4,1459.6,1839.1,1459.6,1844.3z"/>
					<path id="XMLID_2790_" class="st1" d="M1529.5,1854.9c-1.7,0.5-5.2,1.3-9.2,1.3c-4.5,0-8.3-0.9-11.2-3.1
						c-2.6-2-4.2-5.1-4.2-8.8c0-7,6.2-12.2,16.2-12.2c3.5,0,6.2,0.6,7.5,1.1l-0.9,2.5c-1.6-0.6-3.6-1-6.6-1c-7.3,0-12,3.6-12,9.5
						c0,6,4.6,9.5,11.6,9.5c2.5,0,4.3-0.3,5.2-0.6v-7h-6.1v-2.4h9.9V1854.9z"/>
					<path id="XMLID_2787_" class="st1" d="M1559.1,1848.5l-3.1,7.4h-4l10.2-23.6h4.7l10.2,23.6h-4.1l-3.2-7.4H1559.1z
						 M1568.9,1846.1l-2.9-6.8c-0.7-1.5-1.1-2.9-1.6-4.3h-0.1c-0.4,1.4-0.9,2.8-1.5,4.3l-2.9,6.8H1568.9z"/>
					<path id="XMLID_2785_" class="st1" d="M1600.3,1855.9v-23.6h4.2l9.6,11.9c2.2,2.8,4,5.2,5.4,7.7l0.1,0c-0.4-3.1-0.4-6-0.4-9.7
						v-9.9h3.6v23.6h-3.9l-9.5-12c-2.1-2.6-4.1-5.3-5.6-7.9l-0.1,0c0.2,3,0.3,5.8,0.3,9.7v10.1H1600.3z"/>
				</g>
				<g id="XMLID_2764_">
					<path id="XMLID_2782_" class="st1" d="M1271.3,1811.7v-62.9h8.6v55.2h28.4v7.7H1271.3z"/>
					<path id="XMLID_2779_" class="st1" d="M1312.8,1779.7c0-9.1,2.3-16.7,6.9-22.9c4.6-6.1,10.7-9.2,18.5-9.2
						c8.7,0,15.4,2.8,20.1,8.5c4.7,5.6,7,13.5,7,23.6c0,10.3-2.3,18.4-7,24.3c-4.7,5.9-11.4,8.8-20.1,8.8c-7.9,0-14.1-3.1-18.6-9.3
						C1315.1,1797.3,1312.8,1789.4,1312.8,1779.7z M1321.9,1779.7c0,7.2,1.4,13.2,4.3,18.1c2.9,4.8,6.9,7.3,12.1,7.3
						c5.9,0,10.3-2.2,13.4-6.7c3.1-4.4,4.6-10.7,4.6-18.7c0-16.2-6-24.3-18-24.3c-5.3,0-9.4,2.2-12.2,6.5
						C1323.2,1766.3,1321.9,1772.2,1321.9,1779.7z"/>
					<path id="XMLID_2777_" class="st1" d="M1418.7,1753.1l-3.6,7.1c-4.3-3.2-8.6-4.8-12.7-4.8c-6.6,0-11.8,2.3-15.6,7
						c-3.8,4.6-5.7,10.8-5.7,18.4c0,7.3,1.9,13.1,5.6,17.6c3.7,4.4,8.8,6.7,15.3,6.7c4.6,0,8.3-1.4,11.1-4.1v-14.7h-8.7v-7.3h17.3
						v27.4c-2.3,1.9-5.5,3.5-9.6,4.7c-4.1,1.2-8.1,1.8-11.9,1.8c-8.7,0-15.5-2.9-20.6-8.8c-5-5.9-7.5-13.7-7.5-23.5
						c0-9.7,2.8-17.6,8.3-23.7c5.5-6.1,13-9.1,22.3-9.1C1409.3,1747.7,1414.6,1749.5,1418.7,1753.1z"/>
					<path id="XMLID_2774_" class="st1" d="M1431.6,1779.7c0-9.1,2.3-16.7,6.9-22.9c4.6-6.1,10.7-9.2,18.5-9.2
						c8.7,0,15.4,2.8,20.1,8.5c4.7,5.6,7,13.5,7,23.6c0,10.3-2.3,18.4-7,24.3c-4.7,5.9-11.4,8.8-20.1,8.8c-7.9,0-14.1-3.1-18.6-9.3
						C1433.9,1797.3,1431.6,1789.4,1431.6,1779.7z M1440.6,1779.7c0,7.2,1.4,13.2,4.3,18.1c2.8,4.8,6.9,7.3,12.1,7.3
						c5.9,0,10.3-2.2,13.4-6.7c3.1-4.4,4.6-10.7,4.6-18.7c0-16.2-6-24.3-18-24.3c-5.3,0-9.4,2.2-12.2,6.5
						C1442,1766.3,1440.6,1772.2,1440.6,1779.7z"/>
					<path id="XMLID_2772_" class="st1" d="M1559.2,1812.6l-32.5-46v45.2h-8.2v-62.9h3.4l31.7,43.5v-43.5h8.2v63.8H1559.2z"/>
					<path id="XMLID_2769_" class="st1" d="M1610.4,1811.7l-4.3-13.3h-23.4l-4.6,13.3h-9.6l25.6-63.8h2.3l23.7,63.8H1610.4z
						 M1594.7,1764.4l-9.8,27.7h18.7L1594.7,1764.4z"/>
					<path id="XMLID_2767_" class="st1" d="M1674,1811.7l-7.5-40.4l-13.7,41.3h-2.1l-14.1-41.3l-7.3,40.4h-8.2l11.8-62.9h3.9
						l15,45.9l13.8-45.9h3.9l12.8,62.9H1674z"/>
					<path id="XMLID_2765_" class="st1" d="M1697.6,1756.5v17.5h20.8v7.3h-20.8v22.7h28.5v7.7H1689v-62.9h37.6v7.7H1697.6z"/>
				</g>
			</g>
		</g>
	</g>
</g>
</svg>
